HIERARCHY
ROOT Hips
{
	OFFSET 45.645802 -38.238014 95.867195
	CHANNELS 6 Xposition Yposition Zposition Xrotation Yrotation Zrotation
	JOINT spine
	{
		OFFSET 0.000000 -0.458069 7.965683
		CHANNELS 3 Xrotation Yrotation Zrotation
		JOINT spine1
		{
			OFFSET 0.000000 -0.000004 10.243103
			CHANNELS 3 Xrotation Yrotation Zrotation
			JOINT spine2
			{
				OFFSET 0.000000 0.000000 9.814751
				CHANNELS 3 Xrotation Yrotation Zrotation
				JOINT Neck
				{
					OFFSET 0.000000 -1.201385 25.198608
					CHANNELS 3 Xrotation Yrotation Zrotation
					JOINT Head
					{
						OFFSET 0.000000 -0.000004 7.613144
						CHANNELS 3 Xrotation Yrotation Zrotation
						End Site
						{
							OFFSET 0.000000 6.077332 18.428101
						}
					}
				}
				JOINT RightShoulder
				{
					OFFSET -4.132702 0.575447 10.599213
					CHANNELS 3 Xrotation Yrotation Zrotation
					JOINT RightArm
					{
						OFFSET 0.000000 0.000000 13.901794
						CHANNELS 3 Xrotation Yrotation Zrotation
						JOINT RightArmRoll
						{
							OFFSET 0.000000 -0.000004 7.017883
							CHANNELS 3 Xrotation Yrotation Zrotation
							JOINT RightForeArm
							{
								OFFSET 0.000000 -0.000004 20.440598
								CHANNELS 3 Xrotation Yrotation Zrotation
								JOINT RightForeArmRoll
								{
									OFFSET 0.000000 0.000000 7.875153
									CHANNELS 3 Xrotation Yrotation Zrotation
									JOINT RightHand
									{
										OFFSET 0.000000 -0.000004 15.803696
										CHANNELS 3 Xrotation Yrotation Zrotation
										End Site
										{
											OFFSET 0.000000 0.000000 0.100006
										}
									}
								}
							}
						}
					}
				}
				JOINT LeftShoulder
				{
					OFFSET 4.132702 0.575447 10.599213
					CHANNELS 3 Xrotation Yrotation Zrotation
					JOINT LeftArm
					{
						OFFSET 0.000000 0.000000 13.901794
						CHANNELS 3 Xrotation Yrotation Zrotation
						JOINT LeftArmRoll
						{
							OFFSET 0.000000 -0.000004 7.017883
							CHANNELS 3 Xrotation Yrotation Zrotation
							JOINT LeftForeArm
							{
								OFFSET 0.000000 -0.000004 20.440598
								CHANNELS 3 Xrotation Yrotation Zrotation
								JOINT LeftForeArmRoll
								{
									OFFSET 0.000000 0.000000 7.875153
									CHANNELS 3 Xrotation Yrotation Zrotation
									JOINT LeftHand
									{
										OFFSET 0.000000 -0.000004 15.803696
										CHANNELS 3 Xrotation Yrotation Zrotation
										End Site
										{
											OFFSET 0.000000 0.000000 0.100006
										}
									}
								}
							}
						}
					}
				}
			}
		}
	}
	JOINT RightUpLeg
	{
		OFFSET -7.060482 1.086102 -1.294701
		CHANNELS 3 Xrotation Yrotation Zrotation
		JOINT RightUpLegRoll
		{
			OFFSET 0.000000 -0.000004 18.530800
			CHANNELS 3 Xrotation Yrotation Zrotation
			JOINT RightLeg
			{
				OFFSET 0.000000 0.000004 -22.947601
				CHANNELS 3 Xrotation Yrotation Zrotation
				JOINT RightLegRoll
				{
					OFFSET 0.000000 -0.000004 23.022598
					CHANNELS 3 Xrotation Yrotation Zrotation
					JOINT RightFoot
					{
						OFFSET 0.000000 -0.000004 19.162514
						CHANNELS 3 Xrotation Yrotation Zrotation
						JOINT RightToeBase
						{
							OFFSET 0.000000 0.000000 16.018799
							CHANNELS 3 Xrotation Yrotation Zrotation
							End Site
							{
								OFFSET 0.006790 0.894203 7.757828
							}
						}
					}
				}
			}
		}
	}
	JOINT LeftUpLeg
	{
		OFFSET 7.060482 1.086102 -1.294701
		CHANNELS 3 Xrotation Yrotation Zrotation
		JOINT LeftUpLegRoll
		{
			OFFSET 0.000000 -0.000004 18.530899
			CHANNELS 3 Xrotation Yrotation Zrotation
			JOINT LeftLeg
			{
				OFFSET 0.000000 -0.000004 22.947510
				CHANNELS 3 Xrotation Yrotation Zrotation
				JOINT LeftLegRoll
				{
					OFFSET 0.000000 -0.000004 23.235504
					CHANNELS 3 Xrotation Yrotation Zrotation
					JOINT LeftFoot
					{
						OFFSET 0.000000 -0.000004 18.949600
						CHANNELS 3 Xrotation Yrotation Zrotation
						JOINT LeftToeBase
						{
							OFFSET 0.000000 0.000000 16.018799
							CHANNELS 3 Xrotation Yrotation Zrotation
							End Site
							{
								OFFSET -0.030430 0.894203 7.757828
							}
						}
					}
				}
			}
		}
	}
}
MOTION
Frames: 8
Frame Time: 0.041667
48.657505 -16.890320 95.691383 -0.884210 1.165861 0.248110 -1.942710 -0.208126 -0.130888 0.117507 -0.408173 -0.267127 1.762586 -0.411609 -0.262301 19.713526 -1.612083 -0.776998 1.148020 1.804528 -1.015390 3.876558 -72.868891 2.570917 -51.406066 -115.577306 -28.476790 -0.000001 0.000007 -0.000004 0.019900 -2.068759 -0.143709 0.000002 0.000006 -3.037443 -5.000152 -7.999860 0.000034 7.930177 72.980926 -6.956423 -47.866703 116.411162 26.512878 -0.000001 -0.000001 -0.000001 0.011864 0.904897 -0.324335 -0.000003 -0.000012 3.006982 -5.000156 8.000020 -0.000010 1.537130 -177.565876 -3.023541 -179.999991 0.000005 -1.114996 176.054601 -2.450180 -0.561941 -0.000003 0.000001 0.050220 69.205041 6.950564 1.966164 25.456924 -7.351829 0.000002 -1.591976 173.494482 0.459309 -0.000005 -0.000004 -1.147260 -8.446472 1.532682 0.385286 -0.000004 0.000004 -0.158532 70.361986 -6.927490 -1.927870 25.484337 7.350777 -0.036296 
48.661003 -16.887409 95.694992 -0.880174 1.168112 0.239356 -1.942443 -0.208074 -0.130826 0.117996 -0.408046 -0.267590 1.763075 -0.411481 -0.262762 19.702439 -1.613428 -0.775059 1.166396 1.804367 -1.013281 3.878500 -72.865045 2.573598 -51.378165 -115.576472 -28.454390 -0.000003 0.000007 -0.000002 0.019901 -2.074590 -0.143533 0.000002 0.000005 -3.037443 -5.000153 -7.999860 0.000038 7.911594 72.964814 -6.938786 -47.828225 116.416804 26.479808 0.000001 -0.000000 -0.000002 0.011862 0.907111 -0.324593 -0.000001 -0.000013 3.006983 -5.000154 8.000020 -0.000011 1.528008 -177.567857 -3.025522 -179.999991 0.000005 -1.114996 176.046896 -2.449163 -0.562200 -0.000003 0.000000 0.050220 69.202937 6.950602 1.966103 25.456926 -7.351829 0.000002 -1.592287 173.492488 0.458090 -0.000005 -0.000004 -1.147260 -8.446397 1.533523 0.385331 -0.000005 0.000004 -0.158479 70.365285 -6.927507 -1.927867 25.484235 7.350774 -0.036449 
48.660404 -16.888416 95.695389 -0.876398 1.170363 0.230591 -1.942150 -0.207996 -0.130712 0.118543 -0.407858 -0.268009 1.763626 -0.411292 -0.263182 19.691447 -1.614735 -0.773080 1.185001 1.803685 -1.011055 3.880613 -72.861193 2.576451 -51.348174 -115.576062 -28.429769 -0.000003 0.000006 -0.000007 0.019903 -2.080560 -0.143385 0.000000 0.000005 -3.037442 -5.000155 -7.999860 0.000036 7.893778 72.948572 -6.922011 -47.789601 116.422391 26.446311 -0.000003 0.000000 -0.000000 0.011863 0.909050 -0.324853 -0.000003 -0.000012 3.006983 -5.000154 8.000020 -0.000012 1.519220 -177.569865 -3.027587 -179.999991 0.000005 -1.114996 176.039206 -2.447151 -0.561381 -0.000003 0.000000 0.050220 69.201243 6.950592 1.966008 25.456923 -7.351828 0.000002 -1.591797 173.490480 0.456695 -0.000005 -0.000004 -1.147260 -8.445519 1.534446 0.385347 -0.000005 0.000004 -0.158400 70.368577 -6.927487 -1.928060 25.483928 7.350782 -0.036414 
48.661400 -16.892916 95.691582 -0.872798 1.172614 0.221818 -1.941832 -0.207901 -0.130563 0.119129 -0.407626 -0.268398 1.764215 -0.411058 -0.263571 19.680551 -1.616031 -0.771063 1.203737 1.802632 -1.008749 3.882828 -72.857348 2.579421 -51.317711 -115.575420 -28.404723 0.000001 0.000007 -0.000004 0.019901 -2.086620 -0.143252 -0.000000 0.000005 -3.037441 -5.000152 -7.999860 0.000035 7.876441 72.932104 -6.905785 -47.750512 116.427773 26.412108 -0.000002 -0.000001 -0.000002 0.011864 0.910792 -0.325113 -0.000000 -0.000012 3.006982 -5.000157 8.000020 -0.000010 1.510680 -177.571832 -3.029723 -179.999991 0.000006 -1.114996 176.031460 -2.446132 -0.561642 -0.000003 0.000000 0.050220 69.199768 6.950590 1.966001 25.456921 -7.351829 0.000002 -1.590778 173.488485 0.455177 -0.000005 -0.000004 -1.147260 -8.444093 1.535430 0.385343 -0.000004 0.000004 -0.158303 70.371876 -6.927503 -1.928057 25.483625 7.350773 -0.036272 
48.657799 -16.890814 95.691483 -0.869303 1.174865 0.213042 -1.941501 -0.207794 -0.130393 0.119737 -0.407369 -0.268771 1.764825 -0.410800 -0.263945 19.669661 -1.617308 -0.769033 1.222555 1.801370 -1.006397 3.885106 -72.853496 2.582462 -51.287266 -115.574792 -28.379779 -0.000001 0.000007 -0.000004 0.019900 -2.092730 -0.143125 0.000000 0.000006 -3.037441 -5.000155 -7.999861 0.000035 7.859482 72.915637 -6.889970 -47.709961 116.433852 26.376266 0.000002 -0.000000 0.000000 0.011863 0.912423 -0.325374 -0.000001 -0.000012 3.006980 -5.000156 8.000020 -0.000012 1.502269 -177.573840 -3.031902 -179.999991 0.000005 -1.114996 176.023687 -2.445101 -0.561904 -0.000004 0.000000 0.050220 69.198279 6.950590 1.965993 25.456923 -7.351827 0.000002 -1.589425 173.486491 0.453588 -0.000005 -0.000004 -1.147260 -8.442335 1.536457 0.385330 -0.000004 0.000004 -0.158195 70.375271 -6.927486 -1.928042 25.483321 7.350776 -0.036076 
48.658104 -16.894318 95.691895 -0.865838 1.177115 0.204262 -1.941173 -0.207687 -0.130217 0.120350 -0.407106 -0.269139 1.765435 -0.410536 -0.264312 19.658867 -1.618585 -0.766991 1.241400 1.800057 -1.004031 3.887386 -72.849650 2.585505 -51.256639 -115.574109 -28.354596 -0.000002 0.000006 -0.000006 0.019901 -2.098851 -0.143003 0.000000 0.000006 -3.037441 -5.000154 -7.999860 0.000037 7.842578 72.899060 -6.874222 -47.670902 116.439262 26.342001 -0.000001 -0.000001 -0.000001 0.011864 0.914028 -0.325634 -0.000004 -0.000013 3.006983 -5.000154 8.000020 -0.000011 1.493900 -177.575834 -3.034077 -179.999991 0.000006 -1.114996 176.015928 -2.443089 -0.561099 -0.000003 0.000000 0.050220 69.196906 6.950592 1.965881 25.456924 -7.351828 0.000002 -1.588011 173.485480 0.451956 -0.000005 -0.000004 -1.147260 -8.440510 1.537493 0.385314 -0.000004 0.000005 -0.158085 70.378577 -6.927499 -1.928138 25.482917 7.350781 -0.035856 
48.661201 -16.895611 95.688889 -0.862318 1.179366 0.195486 -1.940853 -0.207584 -0.130052 0.120953 -0.406856 -0.269515 1.766036 -0.410284 -0.264689 19.647973 -1.619872 -0.764968 1.260201 1.798855 -1.001688 3.889664 -72.845798 2.588546 -51.226176 -115.573494 -28.329652 -0.000003 0.000006 -0.000004 0.019903 -2.104949 -0.142874 0.000001 0.000005 -3.037441 -5.000158 -7.999858 0.000036 7.825581 72.882585 -6.858365 -47.630375 116.445354 26.306178 0.000001 -0.000001 -0.000001 0.011865 0.915687 -0.325894 -0.000001 -0.000012 3.006980 -5.000154 8.000020 -0.000010 1.485449 -177.577801 -3.036247 -179.999991 0.000005 -1.114996 176.008169 -2.442071 -0.561360 -0.000003 0.000001 0.050220 69.195431 6.950591 1.965874 25.456928 -7.351828 0.000002 -1.586739 173.483485 0.450383 -0.000005 -0.000005 -1.147260 -8.438842 1.538508 0.385303 -0.000004 0.000004 -0.157980 70.381971 -6.927482 -1.928124 25.482613 7.350771 -0.035673 
48.663399 -16.900017 95.687889 -0.858667 1.181617 0.186715 -1.940541 -0.207493 -0.129913 0.121527 -0.406636 -0.269913 1.766616 -0.410063 -0.265088 19.637084 -1.621169 -0.762963 1.278901 1.797922 -0.999403 3.891839 -72.841946 2.591467 -51.197490 -115.572333 -28.306551 -0.000002 0.000006 -0.000005 0.019901 -2.110980 -0.142737 0.000001 0.000005 -3.037442 -5.000155 -7.999861 0.000034 7.808244 72.866118 -6.842120 -47.591505 116.450873 26.272288 -0.000002 -0.000001 -0.000001 0.011863 0.917485 -0.326158 -0.000001 -0.000012 3.006983 -5.000155 8.000019 -0.000011 1.476840 -177.579796 -3.038363 -179.999991 0.000005 -1.114996 176.000424 -2.441053 -0.561621 -0.000003 0.000000 0.050220 69.193832 6.950585 1.965772 25.456919 -7.351828 0.000002 -1.585867 173.481477 0.448901 -0.000005 -0.000005 -1.147260 -8.437577 1.539483 0.385306 -0.000004 0.000004 -0.157888 70.385277 -6.927494 -1.928121 25.482314 7.350773 -0.035567 
